<svg xmlns="http://www.w3.org/2000/svg" viewBox="0 0 100 100" width="100%" height="100%">
  <!-- Definitions for gradients and shadows if needed -->
  <defs>
    <linearGradient id="lime-glow" x1="0%" y1="0%" x2="100%" y2="100%">
      <stop offset="0%" stop-color="#D4E938" />
      <stop offset="100%" stop-color="#A2B700" />
    </linearGradient>
  </defs>
  
  <!-- Outer glowing rings or accents (optional, keep it clean) -->
  
  <!-- Stylized Bull Head -->
  <!-- Horns -->
  <path d="M 15 25 C 25 15, 40 28, 45 40 C 35 32, 22 35, 15 25 Z" fill="url(#lime-glow)" />
  <path d="M 85 25 C 75 15, 60 28, 55 40 C 65 32, 78 35, 85 25 Z" fill="url(#lime-glow)" />
  
  <!-- Main Face / Shield -->
  <polygon points="50,90 25,48 40,48 50,62 60,48 75,48" fill="#FFFFFF" />
  
  <!-- Forehead Accent -->
  <polygon points="50,45 35,45 42,32 50,38 58,32 65,45" fill="url(#lime-glow)" />
  
  <!-- Snout Accent -->
  <polygon points="50,85 40,68 50,72 60,68" fill="#D4E938" />
</svg>
